<mxfile host="Electron" modified="2024-05-11T07:39:25.724Z" agent="Mozilla/5.0 (Windows NT 10.0; Win64; x64) AppleWebKit/537.36 (KHTML, like Gecko) draw.io/24.2.5 Chrome/120.0.6099.109 Electron/28.1.0 Safari/537.36" etag="LieYSFsVOFwqb_Vw9ZFZ" version="24.2.5" type="device">
  <diagram name="Page-1" id="No02aKgjk-d0hoAhC-et">
    <mxGraphModel dx="2364" dy="712" grid="1" gridSize="10" guides="1" tooltips="1" connect="1" arrows="1" fold="1" page="1" pageScale="1" pageWidth="1169" pageHeight="827" math="0" shadow="0">
      <root>
        <mxCell id="0" />
        <mxCell id="1" parent="0" />
        <mxCell id="2NCjlZ-DJ5AgkBBbE0hC-5" value="Yes" style="edgeStyle=orthogonalEdgeStyle;rounded=0;sketch=1;hachureGap=4;jiggle=2;curveFitting=1;orthogonalLoop=1;jettySize=auto;html=1;exitX=1;exitY=0.5;exitDx=0;exitDy=0;fontFamily=Architects Daughter;fontSource=https%3A%2F%2Ffonts.googleapis.com%2Fcss%3Ffamily%3DArchitects%2BDaughter;" parent="1" source="f4YvzmIsYeywo6m7AZig-15" target="2NCjlZ-DJ5AgkBBbE0hC-2" edge="1">
          <mxGeometry x="-0.3333" y="-10" relative="1" as="geometry">
            <mxPoint x="10" y="-10" as="offset" />
          </mxGeometry>
        </mxCell>
        <mxCell id="2NCjlZ-DJ5AgkBBbE0hC-14" value="No" style="edgeStyle=orthogonalEdgeStyle;rounded=0;sketch=1;hachureGap=4;jiggle=2;curveFitting=1;orthogonalLoop=1;jettySize=auto;html=1;exitX=0;exitY=0.5;exitDx=0;exitDy=0;entryX=0.5;entryY=0;entryDx=0;entryDy=0;fontFamily=Architects Daughter;fontSource=https%3A%2F%2Ffonts.googleapis.com%2Fcss%3Ffamily%3DArchitects%2BDaughter;" parent="1" source="f4YvzmIsYeywo6m7AZig-15" target="2NCjlZ-DJ5AgkBBbE0hC-1" edge="1">
          <mxGeometry x="-0.3333" y="-10" relative="1" as="geometry">
            <mxPoint x="10" y="-10" as="offset" />
          </mxGeometry>
        </mxCell>
        <mxCell id="f4YvzmIsYeywo6m7AZig-15" value="&lt;span style=&quot;font-size: 18px; background-color: initial;&quot;&gt;Samples: 2&lt;/span&gt;&lt;div&gt;&lt;span style=&quot;font-size: 18px;&quot;&gt;Black Hair?&lt;/span&gt;&lt;/div&gt;" style="rounded=1;whiteSpace=wrap;html=1;hachureGap=4;fontFamily=Architects Daughter;fontSource=https%3A%2F%2Ffonts.googleapis.com%2Fcss%3Ffamily%3DArchitects%2BDaughter;sketch=1;curveFitting=1;jiggle=2;" parent="1" vertex="1">
          <mxGeometry x="-1040" y="640" width="120" height="60" as="geometry" />
        </mxCell>
        <mxCell id="2NCjlZ-DJ5AgkBBbE0hC-1" value="&lt;span style=&quot;font-size: 18px;&quot;&gt;Carmen&lt;/span&gt;" style="ellipse;whiteSpace=wrap;html=1;hachureGap=4;fontFamily=Architects Daughter;fontSource=https%3A%2F%2Ffonts.googleapis.com%2Fcss%3Ffamily%3DArchitects%2BDaughter;sketch=1;curveFitting=1;jiggle=2;fillColor=#FFCC00;" parent="1" vertex="1">
          <mxGeometry x="-1120" y="710" width="120" height="80" as="geometry" />
        </mxCell>
        <mxCell id="2NCjlZ-DJ5AgkBBbE0hC-2" value="&lt;span style=&quot;font-size: 18px;&quot;&gt;Olivia&lt;/span&gt;" style="ellipse;whiteSpace=wrap;html=1;hachureGap=4;fontFamily=Architects Daughter;fontSource=https%3A%2F%2Ffonts.googleapis.com%2Fcss%3Ffamily%3DArchitects%2BDaughter;sketch=1;curveFitting=1;jiggle=2;fillColor=#FF69B4;" parent="1" vertex="1">
          <mxGeometry x="-960" y="710" width="120" height="80" as="geometry" />
        </mxCell>
        <mxCell id="2NCjlZ-DJ5AgkBBbE0hC-15" value="Yes" style="edgeStyle=orthogonalEdgeStyle;rounded=0;sketch=1;hachureGap=4;jiggle=2;curveFitting=1;orthogonalLoop=1;jettySize=auto;html=1;exitX=1;exitY=0.5;exitDx=0;exitDy=0;fontFamily=Architects Daughter;fontSource=https%3A%2F%2Ffonts.googleapis.com%2Fcss%3Ffamily%3DArchitects%2BDaughter;" parent="1" source="2NCjlZ-DJ5AgkBBbE0hC-17" target="2NCjlZ-DJ5AgkBBbE0hC-19" edge="1">
          <mxGeometry x="-0.3333" y="-10" relative="1" as="geometry">
            <mxPoint x="10" y="-10" as="offset" />
          </mxGeometry>
        </mxCell>
        <mxCell id="2NCjlZ-DJ5AgkBBbE0hC-16" value="No" style="edgeStyle=orthogonalEdgeStyle;rounded=0;sketch=1;hachureGap=4;jiggle=2;curveFitting=1;orthogonalLoop=1;jettySize=auto;html=1;exitX=0;exitY=0.5;exitDx=0;exitDy=0;entryX=0.5;entryY=0;entryDx=0;entryDy=0;fontFamily=Architects Daughter;fontSource=https%3A%2F%2Ffonts.googleapis.com%2Fcss%3Ffamily%3DArchitects%2BDaughter;" parent="1" source="2NCjlZ-DJ5AgkBBbE0hC-17" target="2NCjlZ-DJ5AgkBBbE0hC-18" edge="1">
          <mxGeometry x="-0.3333" y="-10" relative="1" as="geometry">
            <mxPoint x="10" y="-10" as="offset" />
          </mxGeometry>
        </mxCell>
        <mxCell id="2NCjlZ-DJ5AgkBBbE0hC-17" value="&lt;span style=&quot;font-size: 18px; background-color: initial;&quot;&gt;Samples: 2&lt;/span&gt;&lt;div&gt;&lt;span style=&quot;font-size: 18px;&quot;&gt;Black Hair?&lt;/span&gt;&lt;/div&gt;" style="rounded=1;whiteSpace=wrap;html=1;hachureGap=4;fontFamily=Architects Daughter;fontSource=https%3A%2F%2Ffonts.googleapis.com%2Fcss%3Ffamily%3DArchitects%2BDaughter;sketch=1;curveFitting=1;jiggle=2;" parent="1" vertex="1">
          <mxGeometry x="-750" y="640" width="120" height="60" as="geometry" />
        </mxCell>
        <mxCell id="2NCjlZ-DJ5AgkBBbE0hC-18" value="&lt;span style=&quot;font-size: 18px;&quot;&gt;Katie&lt;/span&gt;" style="ellipse;whiteSpace=wrap;html=1;hachureGap=4;fontFamily=Architects Daughter;fontSource=https%3A%2F%2Ffonts.googleapis.com%2Fcss%3Ffamily%3DArchitects%2BDaughter;sketch=1;curveFitting=1;jiggle=2;fillColor=#FF4500;" parent="1" vertex="1">
          <mxGeometry x="-830" y="710" width="120" height="80" as="geometry" />
        </mxCell>
        <mxCell id="2NCjlZ-DJ5AgkBBbE0hC-19" value="&lt;span style=&quot;font-size: 18px;&quot;&gt;Farah&lt;/span&gt;" style="ellipse;whiteSpace=wrap;html=1;hachureGap=4;fontFamily=Architects Daughter;fontSource=https%3A%2F%2Ffonts.googleapis.com%2Fcss%3Ffamily%3DArchitects%2BDaughter;sketch=1;curveFitting=1;jiggle=2;fillColor=#00CED1;" parent="1" vertex="1">
          <mxGeometry x="-670" y="710" width="120" height="80" as="geometry" />
        </mxCell>
        <mxCell id="2NCjlZ-DJ5AgkBBbE0hC-20" value="Yes" style="edgeStyle=orthogonalEdgeStyle;rounded=0;sketch=1;hachureGap=4;jiggle=2;curveFitting=1;orthogonalLoop=1;jettySize=auto;html=1;exitX=1;exitY=0.5;exitDx=0;exitDy=0;fontFamily=Architects Daughter;fontSource=https%3A%2F%2Ffonts.googleapis.com%2Fcss%3Ffamily%3DArchitects%2BDaughter;" parent="1" source="2NCjlZ-DJ5AgkBBbE0hC-22" target="2NCjlZ-DJ5AgkBBbE0hC-24" edge="1">
          <mxGeometry x="-0.6667" y="10" relative="1" as="geometry">
            <mxPoint as="offset" />
          </mxGeometry>
        </mxCell>
        <mxCell id="2NCjlZ-DJ5AgkBBbE0hC-21" value="No" style="edgeStyle=orthogonalEdgeStyle;rounded=0;sketch=1;hachureGap=4;jiggle=2;curveFitting=1;orthogonalLoop=1;jettySize=auto;html=1;exitX=0;exitY=0.5;exitDx=0;exitDy=0;entryX=0.5;entryY=0;entryDx=0;entryDy=0;fontFamily=Architects Daughter;fontSource=https%3A%2F%2Ffonts.googleapis.com%2Fcss%3Ffamily%3DArchitects%2BDaughter;" parent="1" source="2NCjlZ-DJ5AgkBBbE0hC-22" target="2NCjlZ-DJ5AgkBBbE0hC-23" edge="1">
          <mxGeometry x="-0.6667" y="-10" relative="1" as="geometry">
            <mxPoint as="offset" />
          </mxGeometry>
        </mxCell>
        <mxCell id="2NCjlZ-DJ5AgkBBbE0hC-22" value="&lt;span style=&quot;font-size: 18px; background-color: initial;&quot;&gt;Samples: 2&lt;/span&gt;&lt;div&gt;&lt;span style=&quot;font-size: 18px;&quot;&gt;White Hair?&lt;/span&gt;&lt;/div&gt;" style="rounded=1;whiteSpace=wrap;html=1;hachureGap=4;fontFamily=Architects Daughter;fontSource=https%3A%2F%2Ffonts.googleapis.com%2Fcss%3Ffamily%3DArchitects%2BDaughter;sketch=1;curveFitting=1;jiggle=2;" parent="1" vertex="1">
          <mxGeometry x="-460" y="640" width="120" height="60" as="geometry" />
        </mxCell>
        <mxCell id="2NCjlZ-DJ5AgkBBbE0hC-23" value="&lt;span style=&quot;font-size: 18px;&quot;&gt;David&lt;/span&gt;" style="ellipse;whiteSpace=wrap;html=1;hachureGap=4;fontFamily=Architects Daughter;fontSource=https%3A%2F%2Ffonts.googleapis.com%2Fcss%3Ffamily%3DArchitects%2BDaughter;sketch=1;curveFitting=1;jiggle=2;fillColor=#FF7F50;" parent="1" vertex="1">
          <mxGeometry x="-540" y="710" width="120" height="80" as="geometry" />
        </mxCell>
        <mxCell id="2NCjlZ-DJ5AgkBBbE0hC-24" value="&lt;span style=&quot;font-size: 18px;&quot;&gt;Leo&lt;/span&gt;" style="ellipse;whiteSpace=wrap;html=1;hachureGap=4;fontFamily=Architects Daughter;fontSource=https%3A%2F%2Ffonts.googleapis.com%2Fcss%3Ffamily%3DArchitects%2BDaughter;sketch=1;curveFitting=1;jiggle=2;fillColor=#7FFF00;" parent="1" vertex="1">
          <mxGeometry x="-380" y="710" width="120" height="80" as="geometry" />
        </mxCell>
        <mxCell id="2NCjlZ-DJ5AgkBBbE0hC-25" value="Yes" style="edgeStyle=orthogonalEdgeStyle;rounded=0;sketch=1;hachureGap=4;jiggle=2;curveFitting=1;orthogonalLoop=1;jettySize=auto;html=1;exitX=1;exitY=0.5;exitDx=0;exitDy=0;fontFamily=Architects Daughter;fontSource=https%3A%2F%2Ffonts.googleapis.com%2Fcss%3Ffamily%3DArchitects%2BDaughter;" parent="1" source="2NCjlZ-DJ5AgkBBbE0hC-27" target="2NCjlZ-DJ5AgkBBbE0hC-29" edge="1">
          <mxGeometry x="-0.3333" y="-10" relative="1" as="geometry">
            <mxPoint x="10" y="-10" as="offset" />
          </mxGeometry>
        </mxCell>
        <mxCell id="2NCjlZ-DJ5AgkBBbE0hC-26" value="No" style="edgeStyle=orthogonalEdgeStyle;rounded=0;sketch=1;hachureGap=4;jiggle=2;curveFitting=1;orthogonalLoop=1;jettySize=auto;html=1;exitX=0;exitY=0.5;exitDx=0;exitDy=0;entryX=0.5;entryY=0;entryDx=0;entryDy=0;fontFamily=Architects Daughter;fontSource=https%3A%2F%2Ffonts.googleapis.com%2Fcss%3Ffamily%3DArchitects%2BDaughter;" parent="1" source="2NCjlZ-DJ5AgkBBbE0hC-27" target="2NCjlZ-DJ5AgkBBbE0hC-28" edge="1">
          <mxGeometry x="-0.3333" y="-10" relative="1" as="geometry">
            <mxPoint x="10" y="-10" as="offset" />
          </mxGeometry>
        </mxCell>
        <mxCell id="2NCjlZ-DJ5AgkBBbE0hC-27" value="&lt;span style=&quot;font-size: 18px; background-color: initial;&quot;&gt;Samples: 2&lt;/span&gt;&lt;div&gt;&lt;span style=&quot;font-size: 18px;&quot;&gt;Earring?&lt;/span&gt;&lt;/div&gt;" style="rounded=1;whiteSpace=wrap;html=1;hachureGap=4;fontFamily=Architects Daughter;fontSource=https%3A%2F%2Ffonts.googleapis.com%2Fcss%3Ffamily%3DArchitects%2BDaughter;sketch=1;curveFitting=1;jiggle=2;" parent="1" vertex="1">
          <mxGeometry x="-170" y="640" width="120" height="60" as="geometry" />
        </mxCell>
        <mxCell id="2NCjlZ-DJ5AgkBBbE0hC-28" value="&lt;span style=&quot;font-size: 18px;&quot;&gt;Mike&lt;/span&gt;" style="ellipse;whiteSpace=wrap;html=1;hachureGap=4;fontFamily=Architects Daughter;fontSource=https%3A%2F%2Ffonts.googleapis.com%2Fcss%3Ffamily%3DArchitects%2BDaughter;sketch=1;curveFitting=1;jiggle=2;fillColor=#4682B4;" parent="1" vertex="1">
          <mxGeometry x="-250" y="710" width="120" height="80" as="geometry" />
        </mxCell>
        <mxCell id="2NCjlZ-DJ5AgkBBbE0hC-29" value="&lt;span style=&quot;font-size: 18px;&quot;&gt;Jordan&lt;/span&gt;" style="ellipse;whiteSpace=wrap;html=1;hachureGap=4;fontFamily=Architects Daughter;fontSource=https%3A%2F%2Ffonts.googleapis.com%2Fcss%3Ffamily%3DArchitects%2BDaughter;sketch=1;curveFitting=1;jiggle=2;fillColor=#CD5C5C;" parent="1" vertex="1">
          <mxGeometry x="-90" y="710" width="120" height="80" as="geometry" />
        </mxCell>
        <mxCell id="2NCjlZ-DJ5AgkBBbE0hC-30" value="Yes" style="edgeStyle=orthogonalEdgeStyle;rounded=0;sketch=1;hachureGap=4;jiggle=2;curveFitting=1;orthogonalLoop=1;jettySize=auto;html=1;exitX=1;exitY=0.5;exitDx=0;exitDy=0;fontFamily=Architects Daughter;fontSource=https%3A%2F%2Ffonts.googleapis.com%2Fcss%3Ffamily%3DArchitects%2BDaughter;" parent="1" source="2NCjlZ-DJ5AgkBBbE0hC-32" target="2NCjlZ-DJ5AgkBBbE0hC-34" edge="1">
          <mxGeometry x="-0.3333" y="-10" relative="1" as="geometry">
            <mxPoint x="10" y="-10" as="offset" />
          </mxGeometry>
        </mxCell>
        <mxCell id="2NCjlZ-DJ5AgkBBbE0hC-31" value="No" style="edgeStyle=orthogonalEdgeStyle;rounded=0;sketch=1;hachureGap=4;jiggle=2;curveFitting=1;orthogonalLoop=1;jettySize=auto;html=1;exitX=0;exitY=0.5;exitDx=0;exitDy=0;entryX=0.5;entryY=0;entryDx=0;entryDy=0;fontFamily=Architects Daughter;fontSource=https%3A%2F%2Ffonts.googleapis.com%2Fcss%3Ffamily%3DArchitects%2BDaughter;" parent="1" source="2NCjlZ-DJ5AgkBBbE0hC-32" target="2NCjlZ-DJ5AgkBBbE0hC-33" edge="1">
          <mxGeometry x="-0.3333" y="-10" relative="1" as="geometry">
            <mxPoint x="10" y="-10" as="offset" />
          </mxGeometry>
        </mxCell>
        <mxCell id="2NCjlZ-DJ5AgkBBbE0hC-32" value="&lt;span style=&quot;font-size: 18px; background-color: initial;&quot;&gt;Samples: 2&lt;/span&gt;&lt;div&gt;&lt;span style=&quot;font-size: 18px;&quot;&gt;Moustache?&lt;/span&gt;&lt;/div&gt;" style="rounded=1;whiteSpace=wrap;html=1;hachureGap=4;fontFamily=Architects Daughter;fontSource=https%3A%2F%2Ffonts.googleapis.com%2Fcss%3Ffamily%3DArchitects%2BDaughter;sketch=1;curveFitting=1;jiggle=2;" parent="1" vertex="1">
          <mxGeometry x="120" y="640" width="120" height="60" as="geometry" />
        </mxCell>
        <mxCell id="2NCjlZ-DJ5AgkBBbE0hC-33" value="&lt;span style=&quot;font-size: 18px;&quot;&gt;Amy&lt;/span&gt;" style="ellipse;whiteSpace=wrap;html=1;hachureGap=4;fontFamily=Architects Daughter;fontSource=https%3A%2F%2Ffonts.googleapis.com%2Fcss%3Ffamily%3DArchitects%2BDaughter;sketch=1;curveFitting=1;jiggle=2;fillColor=#FF6347;" parent="1" vertex="1">
          <mxGeometry x="40" y="710" width="120" height="80" as="geometry" />
        </mxCell>
        <mxCell id="2NCjlZ-DJ5AgkBBbE0hC-34" value="&lt;span style=&quot;font-size: 18px;&quot;&gt;Joe&lt;/span&gt;" style="ellipse;whiteSpace=wrap;html=1;hachureGap=4;fontFamily=Architects Daughter;fontSource=https%3A%2F%2Ffonts.googleapis.com%2Fcss%3Ffamily%3DArchitects%2BDaughter;sketch=1;curveFitting=1;jiggle=2;fillColor=#6495ED;" parent="1" vertex="1">
          <mxGeometry x="200" y="710" width="120" height="80" as="geometry" />
        </mxCell>
        <mxCell id="2NCjlZ-DJ5AgkBBbE0hC-46" value="No" style="edgeStyle=orthogonalEdgeStyle;rounded=0;sketch=1;hachureGap=4;jiggle=2;curveFitting=1;orthogonalLoop=1;jettySize=auto;html=1;exitX=0;exitY=0.5;exitDx=0;exitDy=0;entryX=0.5;entryY=0;entryDx=0;entryDy=0;fontFamily=Architects Daughter;fontSource=https%3A%2F%2Ffonts.googleapis.com%2Fcss%3Ffamily%3DArchitects%2BDaughter;" parent="1" source="2NCjlZ-DJ5AgkBBbE0hC-36" target="f4YvzmIsYeywo6m7AZig-15" edge="1">
          <mxGeometry x="-0.7122" y="-11" relative="1" as="geometry">
            <mxPoint as="offset" />
          </mxGeometry>
        </mxCell>
        <mxCell id="2NCjlZ-DJ5AgkBBbE0hC-47" value="Yes" style="edgeStyle=orthogonalEdgeStyle;rounded=0;sketch=1;hachureGap=4;jiggle=2;curveFitting=1;orthogonalLoop=1;jettySize=auto;html=1;exitX=1;exitY=0.5;exitDx=0;exitDy=0;entryX=0.5;entryY=0;entryDx=0;entryDy=0;fontFamily=Architects Daughter;fontSource=https%3A%2F%2Ffonts.googleapis.com%2Fcss%3Ffamily%3DArchitects%2BDaughter;" parent="1" source="2NCjlZ-DJ5AgkBBbE0hC-36" target="2NCjlZ-DJ5AgkBBbE0hC-17" edge="1">
          <mxGeometry x="-0.6899" y="11" relative="1" as="geometry">
            <mxPoint as="offset" />
          </mxGeometry>
        </mxCell>
        <mxCell id="2NCjlZ-DJ5AgkBBbE0hC-36" value="&lt;span style=&quot;font-size: 18px; background-color: initial;&quot;&gt;Samples: 4&lt;/span&gt;&lt;div&gt;&lt;span style=&quot;font-size: 18px;&quot;&gt;Blue Eyes?&lt;/span&gt;&lt;/div&gt;" style="rounded=1;whiteSpace=wrap;html=1;hachureGap=4;fontFamily=Architects Daughter;fontSource=https%3A%2F%2Ffonts.googleapis.com%2Fcss%3Ffamily%3DArchitects%2BDaughter;sketch=1;curveFitting=1;jiggle=2;" parent="1" vertex="1">
          <mxGeometry x="-890" y="561" width="120" height="60" as="geometry" />
        </mxCell>
        <mxCell id="2NCjlZ-DJ5AgkBBbE0hC-48" value="No" style="edgeStyle=orthogonalEdgeStyle;rounded=0;sketch=1;hachureGap=4;jiggle=2;curveFitting=1;orthogonalLoop=1;jettySize=auto;html=1;exitX=0;exitY=0.5;exitDx=0;exitDy=0;entryX=0.5;entryY=0;entryDx=0;entryDy=0;fontFamily=Architects Daughter;fontSource=https%3A%2F%2Ffonts.googleapis.com%2Fcss%3Ffamily%3DArchitects%2BDaughter;" parent="1" source="2NCjlZ-DJ5AgkBBbE0hC-37" target="2NCjlZ-DJ5AgkBBbE0hC-22" edge="1">
          <mxGeometry x="-0.7143" y="-10" relative="1" as="geometry">
            <mxPoint as="offset" />
          </mxGeometry>
        </mxCell>
        <mxCell id="2NCjlZ-DJ5AgkBBbE0hC-49" value="Yes" style="edgeStyle=orthogonalEdgeStyle;rounded=0;sketch=1;hachureGap=4;jiggle=2;curveFitting=1;orthogonalLoop=1;jettySize=auto;html=1;exitX=1;exitY=0.5;exitDx=0;exitDy=0;entryX=0.5;entryY=0;entryDx=0;entryDy=0;fontFamily=Architects Daughter;fontSource=https%3A%2F%2Ffonts.googleapis.com%2Fcss%3Ffamily%3DArchitects%2BDaughter;" parent="1" source="2NCjlZ-DJ5AgkBBbE0hC-37" target="2NCjlZ-DJ5AgkBBbE0hC-27" edge="1">
          <mxGeometry x="-0.6923" y="10" relative="1" as="geometry">
            <mxPoint as="offset" />
          </mxGeometry>
        </mxCell>
        <mxCell id="2NCjlZ-DJ5AgkBBbE0hC-37" value="&lt;span style=&quot;font-size: 18px; background-color: initial;&quot;&gt;Samples: 4&lt;/span&gt;&lt;div&gt;&lt;span style=&quot;font-size: 18px;&quot;&gt;Black Hair?&lt;/span&gt;&lt;/div&gt;" style="rounded=1;whiteSpace=wrap;html=1;hachureGap=4;fontFamily=Architects Daughter;fontSource=https%3A%2F%2Ffonts.googleapis.com%2Fcss%3Ffamily%3DArchitects%2BDaughter;sketch=1;curveFitting=1;jiggle=2;" parent="1" vertex="1">
          <mxGeometry x="-310" y="560" width="120" height="60" as="geometry" />
        </mxCell>
        <mxCell id="2NCjlZ-DJ5AgkBBbE0hC-38" value="&lt;span style=&quot;font-size: 18px;&quot;&gt;Ben&lt;/span&gt;" style="ellipse;whiteSpace=wrap;html=1;hachureGap=4;fontFamily=Architects Daughter;fontSource=https%3A%2F%2Ffonts.googleapis.com%2Fcss%3Ffamily%3DArchitects%2BDaughter;sketch=1;curveFitting=1;jiggle=2;fillColor=#008080;" parent="1" vertex="1">
          <mxGeometry x="390" y="630" width="120" height="80" as="geometry" />
        </mxCell>
        <mxCell id="2NCjlZ-DJ5AgkBBbE0hC-53" value="No" style="edgeStyle=orthogonalEdgeStyle;rounded=0;sketch=1;hachureGap=4;jiggle=2;curveFitting=1;orthogonalLoop=1;jettySize=auto;html=1;exitX=0;exitY=0.5;exitDx=0;exitDy=0;entryX=0.5;entryY=0;entryDx=0;entryDy=0;fontFamily=Architects Daughter;fontSource=https%3A%2F%2Ffonts.googleapis.com%2Fcss%3Ffamily%3DArchitects%2BDaughter;" parent="1" source="2NCjlZ-DJ5AgkBBbE0hC-39" target="2NCjlZ-DJ5AgkBBbE0hC-32" edge="1">
          <mxGeometry x="-0.6667" y="-10" relative="1" as="geometry">
            <mxPoint as="offset" />
          </mxGeometry>
        </mxCell>
        <mxCell id="2NCjlZ-DJ5AgkBBbE0hC-54" value="Yes" style="edgeStyle=orthogonalEdgeStyle;rounded=0;sketch=1;hachureGap=4;jiggle=2;curveFitting=1;orthogonalLoop=1;jettySize=auto;html=1;exitX=1;exitY=0.5;exitDx=0;exitDy=0;entryX=0.5;entryY=0;entryDx=0;entryDy=0;fontFamily=Architects Daughter;fontSource=https%3A%2F%2Ffonts.googleapis.com%2Fcss%3Ffamily%3DArchitects%2BDaughter;" parent="1" source="2NCjlZ-DJ5AgkBBbE0hC-39" target="2NCjlZ-DJ5AgkBBbE0hC-38" edge="1">
          <mxGeometry x="-0.6667" y="10" relative="1" as="geometry">
            <mxPoint as="offset" />
          </mxGeometry>
        </mxCell>
        <mxCell id="2NCjlZ-DJ5AgkBBbE0hC-39" value="&lt;span style=&quot;font-size: 18px; background-color: initial;&quot;&gt;Samples: 3&lt;/span&gt;&lt;div&gt;&lt;span style=&quot;font-size: 18px;&quot;&gt;Earring?&lt;/span&gt;&lt;/div&gt;" style="rounded=1;whiteSpace=wrap;html=1;hachureGap=4;fontFamily=Architects Daughter;fontSource=https%3A%2F%2Ffonts.googleapis.com%2Fcss%3Ffamily%3DArchitects%2BDaughter;sketch=1;curveFitting=1;jiggle=2;" parent="1" vertex="1">
          <mxGeometry x="250" y="560" width="120" height="60" as="geometry" />
        </mxCell>
        <mxCell id="2NCjlZ-DJ5AgkBBbE0hC-40" value="Yes" style="edgeStyle=orthogonalEdgeStyle;rounded=0;sketch=1;hachureGap=4;jiggle=2;curveFitting=1;orthogonalLoop=1;jettySize=auto;html=1;exitX=1;exitY=0.5;exitDx=0;exitDy=0;fontFamily=Architects Daughter;fontSource=https%3A%2F%2Ffonts.googleapis.com%2Fcss%3Ffamily%3DArchitects%2BDaughter;" parent="1" source="2NCjlZ-DJ5AgkBBbE0hC-42" target="2NCjlZ-DJ5AgkBBbE0hC-44" edge="1">
          <mxGeometry x="-0.322" y="-11" relative="1" as="geometry">
            <mxPoint x="11" y="-11" as="offset" />
          </mxGeometry>
        </mxCell>
        <mxCell id="2NCjlZ-DJ5AgkBBbE0hC-41" value="No" style="edgeStyle=orthogonalEdgeStyle;rounded=0;sketch=1;hachureGap=4;jiggle=2;curveFitting=1;orthogonalLoop=1;jettySize=auto;html=1;exitX=0;exitY=0.5;exitDx=0;exitDy=0;entryX=0.5;entryY=0;entryDx=0;entryDy=0;fontFamily=Architects Daughter;fontSource=https%3A%2F%2Ffonts.googleapis.com%2Fcss%3Ffamily%3DArchitects%2BDaughter;" parent="1" source="2NCjlZ-DJ5AgkBBbE0hC-42" target="2NCjlZ-DJ5AgkBBbE0hC-43" edge="1">
          <mxGeometry x="-0.322" y="-11" relative="1" as="geometry">
            <mxPoint x="11" y="-11" as="offset" />
          </mxGeometry>
        </mxCell>
        <mxCell id="2NCjlZ-DJ5AgkBBbE0hC-42" value="&lt;span style=&quot;font-size: 18px; background-color: initial;&quot;&gt;Samples: 2&lt;/span&gt;&lt;div&gt;&lt;span style=&quot;font-size: 18px;&quot;&gt;Earring?&lt;/span&gt;&lt;/div&gt;" style="rounded=1;whiteSpace=wrap;html=1;hachureGap=4;fontFamily=Architects Daughter;fontSource=https%3A%2F%2Ffonts.googleapis.com%2Fcss%3Ffamily%3DArchitects%2BDaughter;sketch=1;curveFitting=1;jiggle=2;" parent="1" vertex="1">
          <mxGeometry x="640" y="561" width="120" height="60" as="geometry" />
        </mxCell>
        <mxCell id="2NCjlZ-DJ5AgkBBbE0hC-43" value="&lt;span style=&quot;font-size: 18px;&quot;&gt;Lily&lt;/span&gt;" style="ellipse;whiteSpace=wrap;html=1;hachureGap=4;fontFamily=Architects Daughter;fontSource=https%3A%2F%2Ffonts.googleapis.com%2Fcss%3Ffamily%3DArchitects%2BDaughter;sketch=1;curveFitting=1;jiggle=2;fillColor=#FFB6C1;" parent="1" vertex="1">
          <mxGeometry x="560" y="630" width="120" height="80" as="geometry" />
        </mxCell>
        <mxCell id="2NCjlZ-DJ5AgkBBbE0hC-44" value="&lt;span style=&quot;font-size: 18px;&quot;&gt;Sophia&lt;/span&gt;" style="ellipse;whiteSpace=wrap;html=1;hachureGap=4;fontFamily=Architects Daughter;fontSource=https%3A%2F%2Ffonts.googleapis.com%2Fcss%3Ffamily%3DArchitects%2BDaughter;sketch=1;curveFitting=1;jiggle=2;fillColor=#FFDAB9;" parent="1" vertex="1">
          <mxGeometry x="720" y="630" width="120" height="80" as="geometry" />
        </mxCell>
        <mxCell id="2NCjlZ-DJ5AgkBBbE0hC-45" value="&lt;span style=&quot;font-size: 18px;&quot;&gt;Liz&lt;/span&gt;" style="ellipse;whiteSpace=wrap;html=1;hachureGap=4;fontFamily=Architects Daughter;fontSource=https%3A%2F%2Ffonts.googleapis.com%2Fcss%3Ffamily%3DArchitects%2BDaughter;sketch=1;curveFitting=1;jiggle=2;fillColor=#8A2BE2;" parent="1" vertex="1">
          <mxGeometry x="470" y="550" width="120" height="80" as="geometry" />
        </mxCell>
        <mxCell id="2NCjlZ-DJ5AgkBBbE0hC-51" value="No" style="edgeStyle=orthogonalEdgeStyle;rounded=0;sketch=1;hachureGap=4;jiggle=2;curveFitting=1;orthogonalLoop=1;jettySize=auto;html=1;exitX=0;exitY=0.5;exitDx=0;exitDy=0;entryX=0.5;entryY=0;entryDx=0;entryDy=0;fontFamily=Architects Daughter;fontSource=https%3A%2F%2Ffonts.googleapis.com%2Fcss%3Ffamily%3DArchitects%2BDaughter;" parent="1" source="2NCjlZ-DJ5AgkBBbE0hC-50" target="2NCjlZ-DJ5AgkBBbE0hC-36" edge="1">
          <mxGeometry x="-0.8519" y="-11" relative="1" as="geometry">
            <mxPoint as="offset" />
          </mxGeometry>
        </mxCell>
        <mxCell id="2NCjlZ-DJ5AgkBBbE0hC-52" value="Yes" style="edgeStyle=orthogonalEdgeStyle;rounded=0;sketch=1;hachureGap=4;jiggle=2;curveFitting=1;orthogonalLoop=1;jettySize=auto;html=1;exitX=1;exitY=0.5;exitDx=0;exitDy=0;entryX=0.5;entryY=0;entryDx=0;entryDy=0;fontFamily=Architects Daughter;fontSource=https%3A%2F%2Ffonts.googleapis.com%2Fcss%3Ffamily%3DArchitects%2BDaughter;" parent="1" source="2NCjlZ-DJ5AgkBBbE0hC-50" target="2NCjlZ-DJ5AgkBBbE0hC-37" edge="1">
          <mxGeometry x="-0.8513" y="11" relative="1" as="geometry">
            <mxPoint as="offset" />
          </mxGeometry>
        </mxCell>
        <mxCell id="2NCjlZ-DJ5AgkBBbE0hC-50" value="&lt;span style=&quot;font-size: 18px; background-color: initial;&quot;&gt;Samples: 8&lt;/span&gt;&lt;div&gt;&lt;span style=&quot;font-size: 18px;&quot;&gt;Man?&lt;/span&gt;&lt;/div&gt;" style="rounded=1;whiteSpace=wrap;html=1;hachureGap=4;fontFamily=Architects Daughter;fontSource=https%3A%2F%2Ffonts.googleapis.com%2Fcss%3Ffamily%3DArchitects%2BDaughter;sketch=1;curveFitting=1;jiggle=2;" parent="1" vertex="1">
          <mxGeometry x="-600" y="491" width="120" height="60" as="geometry" />
        </mxCell>
        <mxCell id="2NCjlZ-DJ5AgkBBbE0hC-56" value="No" style="edgeStyle=orthogonalEdgeStyle;rounded=0;sketch=1;hachureGap=4;jiggle=2;curveFitting=1;orthogonalLoop=1;jettySize=auto;html=1;exitX=0;exitY=0.5;exitDx=0;exitDy=0;entryX=0.5;entryY=0;entryDx=0;entryDy=0;fontFamily=Architects Daughter;fontSource=https%3A%2F%2Ffonts.googleapis.com%2Fcss%3Ffamily%3DArchitects%2BDaughter;" parent="1" source="2NCjlZ-DJ5AgkBBbE0hC-55" target="2NCjlZ-DJ5AgkBBbE0hC-39" edge="1">
          <mxGeometry x="-0.5506" y="-11" relative="1" as="geometry">
            <mxPoint as="offset" />
          </mxGeometry>
        </mxCell>
        <mxCell id="2NCjlZ-DJ5AgkBBbE0hC-57" value="Yes" style="edgeStyle=orthogonalEdgeStyle;rounded=0;sketch=1;hachureGap=4;jiggle=2;curveFitting=1;orthogonalLoop=1;jettySize=auto;html=1;exitX=1;exitY=0.5;exitDx=0;exitDy=0;entryX=0.5;entryY=0;entryDx=0;entryDy=0;fontFamily=Architects Daughter;fontSource=https%3A%2F%2Ffonts.googleapis.com%2Fcss%3Ffamily%3DArchitects%2BDaughter;" parent="1" source="2NCjlZ-DJ5AgkBBbE0hC-55" target="2NCjlZ-DJ5AgkBBbE0hC-45" edge="1">
          <mxGeometry x="-0.4937" y="11" relative="1" as="geometry">
            <mxPoint as="offset" />
          </mxGeometry>
        </mxCell>
        <mxCell id="2NCjlZ-DJ5AgkBBbE0hC-55" value="&lt;span style=&quot;font-size: 18px; background-color: initial;&quot;&gt;Samples: 4&lt;/span&gt;&lt;div&gt;&lt;span style=&quot;font-size: 18px;&quot;&gt;White Hair?&lt;/span&gt;&lt;/div&gt;" style="rounded=1;whiteSpace=wrap;html=1;hachureGap=4;fontFamily=Architects Daughter;fontSource=https%3A%2F%2Ffonts.googleapis.com%2Fcss%3Ffamily%3DArchitects%2BDaughter;sketch=1;curveFitting=1;jiggle=2;" parent="1" vertex="1">
          <mxGeometry x="360" y="491" width="120" height="60" as="geometry" />
        </mxCell>
        <mxCell id="2NCjlZ-DJ5AgkBBbE0hC-58" value="&lt;span style=&quot;font-size: 18px;&quot;&gt;Al&lt;/span&gt;" style="ellipse;whiteSpace=wrap;html=1;hachureGap=4;fontFamily=Architects Daughter;fontSource=https%3A%2F%2Ffonts.googleapis.com%2Fcss%3Ffamily%3DArchitects%2BDaughter;sketch=1;curveFitting=1;jiggle=2;fillColor=#9370DB;" parent="1" vertex="1">
          <mxGeometry x="840" y="551" width="120" height="80" as="geometry" />
        </mxCell>
        <mxCell id="2NCjlZ-DJ5AgkBBbE0hC-60" value="No" style="edgeStyle=orthogonalEdgeStyle;rounded=0;sketch=1;hachureGap=4;jiggle=2;curveFitting=1;orthogonalLoop=1;jettySize=auto;html=1;exitX=0;exitY=0.5;exitDx=0;exitDy=0;entryX=0.5;entryY=0;entryDx=0;entryDy=0;fontFamily=Architects Daughter;fontSource=https%3A%2F%2Ffonts.googleapis.com%2Fcss%3Ffamily%3DArchitects%2BDaughter;" parent="1" source="2NCjlZ-DJ5AgkBBbE0hC-59" target="2NCjlZ-DJ5AgkBBbE0hC-42" edge="1">
          <mxGeometry x="-0.5" y="-11" relative="1" as="geometry">
            <mxPoint as="offset" />
          </mxGeometry>
        </mxCell>
        <mxCell id="2NCjlZ-DJ5AgkBBbE0hC-61" value="Yes" style="edgeStyle=orthogonalEdgeStyle;rounded=0;sketch=1;hachureGap=4;jiggle=2;curveFitting=1;orthogonalLoop=1;jettySize=auto;html=1;exitX=1;exitY=0.5;exitDx=0;exitDy=0;entryX=0.5;entryY=0;entryDx=0;entryDy=0;fontFamily=Architects Daughter;fontSource=https%3A%2F%2Ffonts.googleapis.com%2Fcss%3Ffamily%3DArchitects%2BDaughter;" parent="1" source="2NCjlZ-DJ5AgkBBbE0hC-59" target="2NCjlZ-DJ5AgkBBbE0hC-58" edge="1">
          <mxGeometry x="-0.4286" y="11" relative="1" as="geometry">
            <mxPoint as="offset" />
          </mxGeometry>
        </mxCell>
        <mxCell id="2NCjlZ-DJ5AgkBBbE0hC-59" value="&lt;span style=&quot;font-size: 18px; background-color: initial;&quot;&gt;Samples: 3&lt;/span&gt;&lt;div&gt;&lt;span style=&quot;font-size: 18px;&quot;&gt;Man?&lt;/span&gt;&lt;/div&gt;" style="rounded=1;whiteSpace=wrap;html=1;hachureGap=4;fontFamily=Architects Daughter;fontSource=https%3A%2F%2Ffonts.googleapis.com%2Fcss%3Ffamily%3DArchitects%2BDaughter;sketch=1;curveFitting=1;jiggle=2;" parent="1" vertex="1">
          <mxGeometry x="740" y="491" width="120" height="60" as="geometry" />
        </mxCell>
        <mxCell id="2NCjlZ-DJ5AgkBBbE0hC-62" value="Yes" style="edgeStyle=orthogonalEdgeStyle;rounded=0;sketch=1;hachureGap=4;jiggle=2;curveFitting=1;orthogonalLoop=1;jettySize=auto;html=1;exitX=1;exitY=0.5;exitDx=0;exitDy=0;fontFamily=Architects Daughter;fontSource=https%3A%2F%2Ffonts.googleapis.com%2Fcss%3Ffamily%3DArchitects%2BDaughter;" parent="1" source="2NCjlZ-DJ5AgkBBbE0hC-64" target="2NCjlZ-DJ5AgkBBbE0hC-66" edge="1">
          <mxGeometry x="-0.1765" y="-11" relative="1" as="geometry">
            <mxPoint x="11" y="-11" as="offset" />
          </mxGeometry>
        </mxCell>
        <mxCell id="2NCjlZ-DJ5AgkBBbE0hC-63" value="No" style="edgeStyle=orthogonalEdgeStyle;rounded=0;sketch=1;hachureGap=4;jiggle=2;curveFitting=1;orthogonalLoop=1;jettySize=auto;html=1;exitX=0;exitY=0.5;exitDx=0;exitDy=0;entryX=0.5;entryY=0;entryDx=0;entryDy=0;fontFamily=Architects Daughter;fontSource=https%3A%2F%2Ffonts.googleapis.com%2Fcss%3Ffamily%3DArchitects%2BDaughter;" parent="1" source="2NCjlZ-DJ5AgkBBbE0hC-64" target="2NCjlZ-DJ5AgkBBbE0hC-65" edge="1">
          <mxGeometry x="-0.2393" y="-10" relative="1" as="geometry">
            <mxPoint x="10" y="-10" as="offset" />
            <Array as="points">
              <mxPoint x="1049" y="520" />
              <mxPoint x="1030" y="520" />
            </Array>
          </mxGeometry>
        </mxCell>
        <mxCell id="2NCjlZ-DJ5AgkBBbE0hC-64" value="&lt;span style=&quot;font-size: 18px; background-color: initial;&quot;&gt;Samples: 2&lt;/span&gt;&lt;div&gt;&lt;span style=&quot;font-size: 18px;&quot;&gt;Earring?&lt;/span&gt;&lt;/div&gt;" style="rounded=1;whiteSpace=wrap;html=1;hachureGap=4;fontFamily=Architects Daughter;fontSource=https%3A%2F%2Ffonts.googleapis.com%2Fcss%3Ffamily%3DArchitects%2BDaughter;sketch=1;curveFitting=1;jiggle=2;" parent="1" vertex="1">
          <mxGeometry x="1049" y="491" width="120" height="60" as="geometry" />
        </mxCell>
        <mxCell id="2NCjlZ-DJ5AgkBBbE0hC-65" value="&lt;span style=&quot;font-size: 18px;&quot;&gt;Sam&lt;/span&gt;" style="ellipse;whiteSpace=wrap;html=1;hachureGap=4;fontFamily=Architects Daughter;fontSource=https%3A%2F%2Ffonts.googleapis.com%2Fcss%3Ffamily%3DArchitects%2BDaughter;sketch=1;curveFitting=1;jiggle=2;fillColor=#FF6347;" parent="1" vertex="1">
          <mxGeometry x="970" y="551" width="120" height="80" as="geometry" />
        </mxCell>
        <mxCell id="2NCjlZ-DJ5AgkBBbE0hC-66" value="&lt;span style=&quot;font-size: 18px;&quot;&gt;Laura&lt;/span&gt;" style="ellipse;whiteSpace=wrap;html=1;hachureGap=4;fontFamily=Architects Daughter;fontSource=https%3A%2F%2Ffonts.googleapis.com%2Fcss%3Ffamily%3DArchitects%2BDaughter;sketch=1;curveFitting=1;jiggle=2;fillColor=#20B2AA;" parent="1" vertex="1">
          <mxGeometry x="1130" y="551" width="120" height="80" as="geometry" />
        </mxCell>
        <mxCell id="2NCjlZ-DJ5AgkBBbE0hC-68" value="No" style="edgeStyle=orthogonalEdgeStyle;rounded=0;sketch=1;hachureGap=4;jiggle=2;curveFitting=1;orthogonalLoop=1;jettySize=auto;html=1;exitX=0;exitY=0.5;exitDx=0;exitDy=0;entryX=0.5;entryY=0;entryDx=0;entryDy=0;fontFamily=Architects Daughter;fontSource=https%3A%2F%2Ffonts.googleapis.com%2Fcss%3Ffamily%3DArchitects%2BDaughter;" parent="1" source="2NCjlZ-DJ5AgkBBbE0hC-67" target="2NCjlZ-DJ5AgkBBbE0hC-50" edge="1">
          <mxGeometry x="-0.913" y="-11" relative="1" as="geometry">
            <mxPoint as="offset" />
          </mxGeometry>
        </mxCell>
        <mxCell id="2NCjlZ-DJ5AgkBBbE0hC-69" value="Yes" style="edgeStyle=orthogonalEdgeStyle;rounded=0;sketch=1;hachureGap=4;jiggle=2;curveFitting=1;orthogonalLoop=1;jettySize=auto;html=1;exitX=1;exitY=0.5;exitDx=0;exitDy=0;entryX=0.5;entryY=0;entryDx=0;entryDy=0;fontFamily=Architects Daughter;fontSource=https%3A%2F%2Ffonts.googleapis.com%2Fcss%3Ffamily%3DArchitects%2BDaughter;" parent="1" source="2NCjlZ-DJ5AgkBBbE0hC-67" target="2NCjlZ-DJ5AgkBBbE0hC-55" edge="1">
          <mxGeometry x="-0.913" y="11" relative="1" as="geometry">
            <mxPoint as="offset" />
          </mxGeometry>
        </mxCell>
        <mxCell id="2NCjlZ-DJ5AgkBBbE0hC-67" value="&lt;span style=&quot;font-size: 18px; background-color: initial;&quot;&gt;Samples: 12&lt;/span&gt;&lt;div&gt;&lt;span style=&quot;font-size: 18px;&quot;&gt;Glasses?&lt;/span&gt;&lt;/div&gt;" style="rounded=1;whiteSpace=wrap;html=1;hachureGap=4;fontFamily=Architects Daughter;fontSource=https%3A%2F%2Ffonts.googleapis.com%2Fcss%3Ffamily%3DArchitects%2BDaughter;sketch=1;curveFitting=1;jiggle=2;" parent="1" vertex="1">
          <mxGeometry x="-120" y="421" width="120" height="60" as="geometry" />
        </mxCell>
        <mxCell id="2NCjlZ-DJ5AgkBBbE0hC-71" value="No" style="edgeStyle=orthogonalEdgeStyle;rounded=0;sketch=1;hachureGap=4;jiggle=2;curveFitting=1;orthogonalLoop=1;jettySize=auto;html=1;exitX=0;exitY=0.5;exitDx=0;exitDy=0;entryX=0.5;entryY=0;entryDx=0;entryDy=0;fontFamily=Architects Daughter;fontSource=https%3A%2F%2Ffonts.googleapis.com%2Fcss%3Ffamily%3DArchitects%2BDaughter;" parent="1" source="2NCjlZ-DJ5AgkBBbE0hC-70" target="2NCjlZ-DJ5AgkBBbE0hC-59" edge="1">
          <mxGeometry x="-0.6923" y="-11" relative="1" as="geometry">
            <mxPoint as="offset" />
          </mxGeometry>
        </mxCell>
        <mxCell id="2NCjlZ-DJ5AgkBBbE0hC-72" value="Yes" style="edgeStyle=orthogonalEdgeStyle;rounded=0;sketch=1;hachureGap=4;jiggle=2;curveFitting=1;orthogonalLoop=1;jettySize=auto;html=1;exitX=1;exitY=0.5;exitDx=0;exitDy=0;entryX=0.5;entryY=0;entryDx=0;entryDy=0;fontFamily=Architects Daughter;fontSource=https%3A%2F%2Ffonts.googleapis.com%2Fcss%3Ffamily%3DArchitects%2BDaughter;" parent="1" source="2NCjlZ-DJ5AgkBBbE0hC-70" target="2NCjlZ-DJ5AgkBBbE0hC-64" edge="1">
          <mxGeometry x="-0.7122" y="11" relative="1" as="geometry">
            <mxPoint as="offset" />
          </mxGeometry>
        </mxCell>
        <mxCell id="2NCjlZ-DJ5AgkBBbE0hC-70" value="&lt;span style=&quot;font-size: 18px; background-color: initial;&quot;&gt;Samples: 5&lt;/span&gt;&lt;div&gt;&lt;span style=&quot;font-size: 18px;&quot;&gt;Black Hair?&lt;/span&gt;&lt;/div&gt;" style="rounded=1;whiteSpace=wrap;html=1;hachureGap=4;fontFamily=Architects Daughter;fontSource=https%3A%2F%2Ffonts.googleapis.com%2Fcss%3Ffamily%3DArchitects%2BDaughter;sketch=1;curveFitting=1;jiggle=2;" parent="1" vertex="1">
          <mxGeometry x="890" y="421" width="120" height="60" as="geometry" />
        </mxCell>
        <mxCell id="2NCjlZ-DJ5AgkBBbE0hC-74" value="No" style="edgeStyle=orthogonalEdgeStyle;rounded=0;sketch=1;hachureGap=4;jiggle=2;curveFitting=1;orthogonalLoop=1;jettySize=auto;html=1;exitX=0;exitY=0.5;exitDx=0;exitDy=0;entryX=0.5;entryY=0;entryDx=0;entryDy=0;fontFamily=Architects Daughter;fontSource=https%3A%2F%2Ffonts.googleapis.com%2Fcss%3Ffamily%3DArchitects%2BDaughter;" parent="1" source="2NCjlZ-DJ5AgkBBbE0hC-73" target="2NCjlZ-DJ5AgkBBbE0hC-67" edge="1">
          <mxGeometry x="-0.9168" y="-10" relative="1" as="geometry">
            <mxPoint as="offset" />
          </mxGeometry>
        </mxCell>
        <mxCell id="2NCjlZ-DJ5AgkBBbE0hC-75" value="Yes" style="edgeStyle=orthogonalEdgeStyle;rounded=0;sketch=1;hachureGap=4;jiggle=2;curveFitting=1;orthogonalLoop=1;jettySize=auto;html=1;exitX=1;exitY=0.5;exitDx=0;exitDy=0;entryX=0.5;entryY=0;entryDx=0;entryDy=0;fontFamily=Architects Daughter;fontSource=https%3A%2F%2Ffonts.googleapis.com%2Fcss%3Ffamily%3DArchitects%2BDaughter;" parent="1" source="2NCjlZ-DJ5AgkBBbE0hC-73" target="2NCjlZ-DJ5AgkBBbE0hC-70" edge="1">
          <mxGeometry x="-0.9151" y="10" relative="1" as="geometry">
            <mxPoint as="offset" />
          </mxGeometry>
        </mxCell>
        <mxCell id="2NCjlZ-DJ5AgkBBbE0hC-73" value="&lt;span style=&quot;font-size: 18px; background-color: initial;&quot;&gt;Samples: 17&lt;/span&gt;&lt;div&gt;&lt;span style=&quot;font-size: 18px;&quot;&gt;Green Eyes?&lt;/span&gt;&lt;/div&gt;" style="rounded=1;whiteSpace=wrap;html=1;hachureGap=4;fontFamily=Architects Daughter;fontSource=https%3A%2F%2Ffonts.googleapis.com%2Fcss%3Ffamily%3DArchitects%2BDaughter;sketch=1;curveFitting=1;jiggle=2;" parent="1" vertex="1">
          <mxGeometry x="390" y="360" width="120" height="60" as="geometry" />
        </mxCell>
        <mxCell id="2NCjlZ-DJ5AgkBBbE0hC-111" value="No" style="edgeStyle=orthogonalEdgeStyle;rounded=0;sketch=1;hachureGap=4;jiggle=2;curveFitting=1;orthogonalLoop=1;jettySize=auto;html=1;exitX=0;exitY=0.5;exitDx=0;exitDy=0;entryX=0.5;entryY=0;entryDx=0;entryDy=0;fontFamily=Architects Daughter;fontSource=https%3A%2F%2Ffonts.googleapis.com%2Fcss%3Ffamily%3DArchitects%2BDaughter;" parent="1" source="2NCjlZ-DJ5AgkBBbE0hC-76" target="2NCjlZ-DJ5AgkBBbE0hC-86" edge="1">
          <mxGeometry x="-0.7315" y="-11" relative="1" as="geometry">
            <mxPoint as="offset" />
          </mxGeometry>
        </mxCell>
        <mxCell id="2NCjlZ-DJ5AgkBBbE0hC-112" value="Yes" style="edgeStyle=orthogonalEdgeStyle;rounded=0;sketch=1;hachureGap=4;jiggle=2;curveFitting=1;orthogonalLoop=1;jettySize=auto;html=1;exitX=1;exitY=0.5;exitDx=0;exitDy=0;entryX=0.5;entryY=0;entryDx=0;entryDy=0;fontFamily=Architects Daughter;fontSource=https%3A%2F%2Ffonts.googleapis.com%2Fcss%3Ffamily%3DArchitects%2BDaughter;" parent="1" source="2NCjlZ-DJ5AgkBBbE0hC-76" target="2NCjlZ-DJ5AgkBBbE0hC-93" edge="1">
          <mxGeometry x="-0.7122" y="11" relative="1" as="geometry">
            <mxPoint as="offset" />
          </mxGeometry>
        </mxCell>
        <mxCell id="2NCjlZ-DJ5AgkBBbE0hC-76" value="&lt;span style=&quot;font-size: 18px; background-color: initial;&quot;&gt;Samples: 7&lt;/span&gt;&lt;div&gt;&lt;span style=&quot;font-size: 18px;&quot;&gt;Man?&lt;/span&gt;&lt;/div&gt;" style="rounded=1;whiteSpace=wrap;html=1;hachureGap=4;fontFamily=Architects Daughter;fontSource=https%3A%2F%2Ffonts.googleapis.com%2Fcss%3Ffamily%3DArchitects%2BDaughter;sketch=1;curveFitting=1;jiggle=2;" parent="1" vertex="1">
          <mxGeometry x="1620" y="361" width="120" height="60" as="geometry" />
        </mxCell>
        <mxCell id="2NCjlZ-DJ5AgkBBbE0hC-78" value="No" style="edgeStyle=orthogonalEdgeStyle;rounded=0;sketch=1;hachureGap=4;jiggle=2;curveFitting=1;orthogonalLoop=1;jettySize=auto;html=1;exitX=0;exitY=0.5;exitDx=0;exitDy=0;entryX=0.5;entryY=0;entryDx=0;entryDy=0;fontFamily=Architects Daughter;fontSource=https%3A%2F%2Ffonts.googleapis.com%2Fcss%3Ffamily%3DArchitects%2BDaughter;" parent="1" source="2NCjlZ-DJ5AgkBBbE0hC-77" target="2NCjlZ-DJ5AgkBBbE0hC-73" edge="1">
          <mxGeometry x="-0.9321" y="-11" relative="1" as="geometry">
            <mxPoint as="offset" />
          </mxGeometry>
        </mxCell>
        <mxCell id="2NCjlZ-DJ5AgkBBbE0hC-79" value="Yes" style="edgeStyle=orthogonalEdgeStyle;rounded=0;sketch=1;hachureGap=4;jiggle=2;curveFitting=1;orthogonalLoop=1;jettySize=auto;html=1;exitX=1;exitY=0.5;exitDx=0;exitDy=0;entryX=0.5;entryY=0;entryDx=0;entryDy=0;fontFamily=Architects Daughter;fontSource=https%3A%2F%2Ffonts.googleapis.com%2Fcss%3Ffamily%3DArchitects%2BDaughter;" parent="1" source="2NCjlZ-DJ5AgkBBbE0hC-77" target="2NCjlZ-DJ5AgkBBbE0hC-76" edge="1">
          <mxGeometry x="-0.931" y="11" relative="1" as="geometry">
            <mxPoint as="offset" />
          </mxGeometry>
        </mxCell>
        <mxCell id="2NCjlZ-DJ5AgkBBbE0hC-77" value="&lt;span style=&quot;font-size: 18px; background-color: initial;&quot;&gt;Samples: 24&lt;/span&gt;&lt;div&gt;&lt;span style=&quot;font-size: 18px;&quot;&gt;Freckles?&lt;/span&gt;&lt;/div&gt;" style="rounded=1;whiteSpace=wrap;html=1;hachureGap=4;fontFamily=Architects Daughter;fontSource=https%3A%2F%2Ffonts.googleapis.com%2Fcss%3Ffamily%3DArchitects%2BDaughter;sketch=1;curveFitting=1;jiggle=2;" parent="1" vertex="1">
          <mxGeometry x="1010" y="301" width="120" height="60" as="geometry" />
        </mxCell>
        <mxCell id="2NCjlZ-DJ5AgkBBbE0hC-83" value="&lt;span style=&quot;font-size: 18px;&quot;&gt;Mia&lt;/span&gt;" style="ellipse;whiteSpace=wrap;html=1;hachureGap=4;fontFamily=Architects Daughter;fontSource=https%3A%2F%2Ffonts.googleapis.com%2Fcss%3Ffamily%3DArchitects%2BDaughter;sketch=1;curveFitting=1;jiggle=2;fillColor=#9ACD32;" parent="1" vertex="1">
          <mxGeometry x="1520" y="480" width="120" height="80" as="geometry" />
        </mxCell>
        <mxCell id="2NCjlZ-DJ5AgkBBbE0hC-84" value="No" style="edgeStyle=orthogonalEdgeStyle;rounded=0;sketch=1;hachureGap=4;jiggle=2;curveFitting=1;orthogonalLoop=1;jettySize=auto;html=1;exitX=0;exitY=0.5;exitDx=0;exitDy=0;entryX=0.5;entryY=0;entryDx=0;entryDy=0;fontFamily=Architects Daughter;fontSource=https%3A%2F%2Ffonts.googleapis.com%2Fcss%3Ffamily%3DArchitects%2BDaughter;" parent="1" source="2NCjlZ-DJ5AgkBBbE0hC-86" target="2NCjlZ-DJ5AgkBBbE0hC-108" edge="1">
          <mxGeometry x="-0.5122" y="-10" relative="1" as="geometry">
            <mxPoint as="offset" />
            <mxPoint x="1400" y="431" as="targetPoint" />
          </mxGeometry>
        </mxCell>
        <mxCell id="2NCjlZ-DJ5AgkBBbE0hC-85" value="Yes" style="edgeStyle=orthogonalEdgeStyle;rounded=0;sketch=1;hachureGap=4;jiggle=2;curveFitting=1;orthogonalLoop=1;jettySize=auto;html=1;exitX=1;exitY=0.5;exitDx=0;exitDy=0;entryX=0.5;entryY=0;entryDx=0;entryDy=0;fontFamily=Architects Daughter;fontSource=https%3A%2F%2Ffonts.googleapis.com%2Fcss%3Ffamily%3DArchitects%2BDaughter;" parent="1" source="2NCjlZ-DJ5AgkBBbE0hC-86" target="2NCjlZ-DJ5AgkBBbE0hC-83" edge="1">
          <mxGeometry x="-0.2" y="-10" relative="1" as="geometry">
            <mxPoint x="10" y="-10" as="offset" />
          </mxGeometry>
        </mxCell>
        <mxCell id="2NCjlZ-DJ5AgkBBbE0hC-86" value="&lt;span style=&quot;font-size: 18px; background-color: initial;&quot;&gt;Samples: 3&lt;/span&gt;&lt;div&gt;&lt;span style=&quot;font-size: 18px;&quot;&gt;Black Hair?&lt;/span&gt;&lt;/div&gt;" style="rounded=1;whiteSpace=wrap;html=1;hachureGap=4;fontFamily=Architects Daughter;fontSource=https%3A%2F%2Ffonts.googleapis.com%2Fcss%3Ffamily%3DArchitects%2BDaughter;sketch=1;curveFitting=1;jiggle=2;" parent="1" vertex="1">
          <mxGeometry x="1440" y="420" width="120" height="60" as="geometry" />
        </mxCell>
        <mxCell id="2NCjlZ-DJ5AgkBBbE0hC-90" value="&lt;span style=&quot;font-size: 18px;&quot;&gt;Daniel&lt;/span&gt;" style="ellipse;whiteSpace=wrap;html=1;hachureGap=4;fontFamily=Architects Daughter;fontSource=https%3A%2F%2Ffonts.googleapis.com%2Fcss%3Ffamily%3DArchitects%2BDaughter;sketch=1;curveFitting=1;jiggle=2;fillColor=#FFD700;" parent="1" vertex="1">
          <mxGeometry x="1880" y="481" width="120" height="80" as="geometry" />
        </mxCell>
        <mxCell id="2NCjlZ-DJ5AgkBBbE0hC-91" value="No" style="edgeStyle=orthogonalEdgeStyle;rounded=0;sketch=1;hachureGap=4;jiggle=2;curveFitting=1;orthogonalLoop=1;jettySize=auto;html=1;exitX=0;exitY=0.5;exitDx=0;exitDy=0;entryX=0.5;entryY=0;entryDx=0;entryDy=0;fontFamily=Architects Daughter;fontSource=https%3A%2F%2Ffonts.googleapis.com%2Fcss%3Ffamily%3DArchitects%2BDaughter;" parent="1" source="2NCjlZ-DJ5AgkBBbE0hC-93" target="2NCjlZ-DJ5AgkBBbE0hC-100" edge="1">
          <mxGeometry x="-0.4366" y="-10" relative="1" as="geometry">
            <mxPoint as="offset" />
            <mxPoint x="1820" y="408" as="targetPoint" />
          </mxGeometry>
        </mxCell>
        <mxCell id="2NCjlZ-DJ5AgkBBbE0hC-92" value="Yes" style="edgeStyle=orthogonalEdgeStyle;rounded=0;sketch=1;hachureGap=4;jiggle=2;curveFitting=1;orthogonalLoop=1;jettySize=auto;html=1;exitX=1;exitY=0.5;exitDx=0;exitDy=0;entryX=0.5;entryY=0;entryDx=0;entryDy=0;fontFamily=Architects Daughter;fontSource=https%3A%2F%2Ffonts.googleapis.com%2Fcss%3Ffamily%3DArchitects%2BDaughter;" parent="1" source="2NCjlZ-DJ5AgkBBbE0hC-93" target="2NCjlZ-DJ5AgkBBbE0hC-90" edge="1">
          <mxGeometry x="-0.3443" y="10" relative="1" as="geometry">
            <mxPoint as="offset" />
          </mxGeometry>
        </mxCell>
        <mxCell id="2NCjlZ-DJ5AgkBBbE0hC-93" value="&lt;span style=&quot;font-size: 18px; background-color: initial;&quot;&gt;Samples: 4&lt;/span&gt;&lt;div&gt;&lt;span style=&quot;font-size: 18px;&quot;&gt;Green Eyes?&lt;/span&gt;&lt;/div&gt;" style="rounded=1;whiteSpace=wrap;html=1;hachureGap=4;fontFamily=Architects Daughter;fontSource=https%3A%2F%2Ffonts.googleapis.com%2Fcss%3Ffamily%3DArchitects%2BDaughter;sketch=1;curveFitting=1;jiggle=2;" parent="1" vertex="1">
          <mxGeometry x="1790" y="420" width="120" height="60" as="geometry" />
        </mxCell>
        <mxCell id="2NCjlZ-DJ5AgkBBbE0hC-97" value="&lt;span style=&quot;font-size: 18px;&quot;&gt;Nick&lt;/span&gt;" style="ellipse;whiteSpace=wrap;html=1;hachureGap=4;fontFamily=Architects Daughter;fontSource=https%3A%2F%2Ffonts.googleapis.com%2Fcss%3Ffamily%3DArchitects%2BDaughter;sketch=1;curveFitting=1;jiggle=2;fillColor=#1E90FF;" parent="1" vertex="1">
          <mxGeometry x="1790" y="551" width="120" height="80" as="geometry" />
        </mxCell>
        <mxCell id="2NCjlZ-DJ5AgkBBbE0hC-98" value="No" style="edgeStyle=orthogonalEdgeStyle;rounded=0;sketch=1;hachureGap=4;jiggle=2;curveFitting=1;orthogonalLoop=1;jettySize=auto;html=1;exitX=0;exitY=0.5;exitDx=0;exitDy=0;entryX=0.5;entryY=0;entryDx=0;entryDy=0;fontFamily=Architects Daughter;fontSource=https%3A%2F%2Ffonts.googleapis.com%2Fcss%3Ffamily%3DArchitects%2BDaughter;" parent="1" source="2NCjlZ-DJ5AgkBBbE0hC-100" target="2NCjlZ-DJ5AgkBBbE0hC-103" edge="1">
          <mxGeometry x="-0.322" y="-11" relative="1" as="geometry">
            <mxPoint x="11" y="-11" as="offset" />
            <mxPoint x="1720" y="516" as="targetPoint" />
          </mxGeometry>
        </mxCell>
        <mxCell id="2NCjlZ-DJ5AgkBBbE0hC-99" value="Yes" style="edgeStyle=orthogonalEdgeStyle;rounded=0;sketch=1;hachureGap=4;jiggle=2;curveFitting=1;orthogonalLoop=1;jettySize=auto;html=1;exitX=1;exitY=0.5;exitDx=0;exitDy=0;entryX=0.5;entryY=0;entryDx=0;entryDy=0;fontFamily=Architects Daughter;fontSource=https%3A%2F%2Ffonts.googleapis.com%2Fcss%3Ffamily%3DArchitects%2BDaughter;" parent="1" source="2NCjlZ-DJ5AgkBBbE0hC-100" target="2NCjlZ-DJ5AgkBBbE0hC-97" edge="1">
          <mxGeometry x="-0.3333" y="11" relative="1" as="geometry">
            <mxPoint as="offset" />
          </mxGeometry>
        </mxCell>
        <mxCell id="2NCjlZ-DJ5AgkBBbE0hC-100" value="&lt;span style=&quot;font-size: 18px; background-color: initial;&quot;&gt;Samples: 3&lt;/span&gt;&lt;div&gt;&lt;span style=&quot;font-size: 18px;&quot;&gt;Earring?&lt;/span&gt;&lt;/div&gt;" style="rounded=1;whiteSpace=wrap;html=1;hachureGap=4;fontFamily=Architects Daughter;fontSource=https%3A%2F%2Ffonts.googleapis.com%2Fcss%3Ffamily%3DArchitects%2BDaughter;sketch=1;curveFitting=1;jiggle=2;" parent="1" vertex="1">
          <mxGeometry x="1700" y="491" width="120" height="60" as="geometry" />
        </mxCell>
        <mxCell id="2NCjlZ-DJ5AgkBBbE0hC-101" value="Yes" style="edgeStyle=orthogonalEdgeStyle;rounded=0;sketch=1;hachureGap=4;jiggle=2;curveFitting=1;orthogonalLoop=1;jettySize=auto;html=1;exitX=1;exitY=0.5;exitDx=0;exitDy=0;fontFamily=Architects Daughter;fontSource=https%3A%2F%2Ffonts.googleapis.com%2Fcss%3Ffamily%3DArchitects%2BDaughter;" parent="1" source="2NCjlZ-DJ5AgkBBbE0hC-103" target="2NCjlZ-DJ5AgkBBbE0hC-105" edge="1">
          <mxGeometry x="-0.322" y="-10" relative="1" as="geometry">
            <mxPoint x="10" y="-10" as="offset" />
          </mxGeometry>
        </mxCell>
        <mxCell id="2NCjlZ-DJ5AgkBBbE0hC-102" value="No" style="edgeStyle=orthogonalEdgeStyle;rounded=0;sketch=1;hachureGap=4;jiggle=2;curveFitting=1;orthogonalLoop=1;jettySize=auto;html=1;exitX=0;exitY=0.5;exitDx=0;exitDy=0;entryX=0.5;entryY=0;entryDx=0;entryDy=0;fontFamily=Architects Daughter;fontSource=https%3A%2F%2Ffonts.googleapis.com%2Fcss%3Ffamily%3DArchitects%2BDaughter;" parent="1" source="2NCjlZ-DJ5AgkBBbE0hC-103" target="2NCjlZ-DJ5AgkBBbE0hC-104" edge="1">
          <mxGeometry x="-0.2346" y="-9" relative="1" as="geometry">
            <mxPoint x="9" y="-9" as="offset" />
            <Array as="points">
              <mxPoint x="1600" y="590" />
            </Array>
          </mxGeometry>
        </mxCell>
        <mxCell id="2NCjlZ-DJ5AgkBBbE0hC-103" value="&lt;span style=&quot;font-size: 18px; background-color: initial;&quot;&gt;Samples: 2&lt;/span&gt;&lt;div&gt;&lt;span style=&quot;font-size: 18px;&quot;&gt;Blue Eyes?&lt;/span&gt;&lt;/div&gt;" style="rounded=1;whiteSpace=wrap;html=1;hachureGap=4;fontFamily=Architects Daughter;fontSource=https%3A%2F%2Ffonts.googleapis.com%2Fcss%3Ffamily%3DArchitects%2BDaughter;sketch=1;curveFitting=1;jiggle=2;" parent="1" vertex="1">
          <mxGeometry x="1620" y="560" width="120" height="60" as="geometry" />
        </mxCell>
        <mxCell id="2NCjlZ-DJ5AgkBBbE0hC-104" value="&lt;span style=&quot;font-size: 18px;&quot;&gt;Gabe&lt;/span&gt;" style="ellipse;whiteSpace=wrap;html=1;hachureGap=4;fontFamily=Architects Daughter;fontSource=https%3A%2F%2Ffonts.googleapis.com%2Fcss%3Ffamily%3DArchitects%2BDaughter;sketch=1;curveFitting=1;jiggle=2;fillColor=#FFA500;" parent="1" vertex="1">
          <mxGeometry x="1540" y="629" width="120" height="80" as="geometry" />
        </mxCell>
        <mxCell id="2NCjlZ-DJ5AgkBBbE0hC-105" value="&lt;span style=&quot;font-size: 18px;&quot;&gt;Eric&lt;/span&gt;" style="ellipse;whiteSpace=wrap;html=1;hachureGap=4;fontFamily=Architects Daughter;fontSource=https%3A%2F%2Ffonts.googleapis.com%2Fcss%3Ffamily%3DArchitects%2BDaughter;sketch=1;curveFitting=1;jiggle=2;fillColor=#32CD32;" parent="1" vertex="1">
          <mxGeometry x="1700" y="629" width="120" height="80" as="geometry" />
        </mxCell>
        <mxCell id="2NCjlZ-DJ5AgkBBbE0hC-106" value="Yes" style="edgeStyle=orthogonalEdgeStyle;rounded=0;sketch=1;hachureGap=4;jiggle=2;curveFitting=1;orthogonalLoop=1;jettySize=auto;html=1;exitX=1;exitY=0.5;exitDx=0;exitDy=0;fontFamily=Architects Daughter;fontSource=https%3A%2F%2Ffonts.googleapis.com%2Fcss%3Ffamily%3DArchitects%2BDaughter;" parent="1" source="2NCjlZ-DJ5AgkBBbE0hC-108" target="2NCjlZ-DJ5AgkBBbE0hC-110" edge="1">
          <mxGeometry x="-0.1765" y="-11" relative="1" as="geometry">
            <mxPoint x="11" y="-11" as="offset" />
          </mxGeometry>
        </mxCell>
        <mxCell id="2NCjlZ-DJ5AgkBBbE0hC-107" value="No" style="edgeStyle=orthogonalEdgeStyle;rounded=0;sketch=1;hachureGap=4;jiggle=2;curveFitting=1;orthogonalLoop=1;jettySize=auto;html=1;exitX=0;exitY=0.5;exitDx=0;exitDy=0;entryX=0.5;entryY=0;entryDx=0;entryDy=0;fontFamily=Architects Daughter;fontSource=https%3A%2F%2Ffonts.googleapis.com%2Fcss%3Ffamily%3DArchitects%2BDaughter;" parent="1" source="2NCjlZ-DJ5AgkBBbE0hC-108" target="2NCjlZ-DJ5AgkBBbE0hC-109" edge="1">
          <mxGeometry x="-0.2393" y="-10" relative="1" as="geometry">
            <mxPoint x="10" y="-10" as="offset" />
            <Array as="points">
              <mxPoint x="1339" y="520" />
              <mxPoint x="1320" y="520" />
            </Array>
          </mxGeometry>
        </mxCell>
        <mxCell id="2NCjlZ-DJ5AgkBBbE0hC-108" value="&lt;span style=&quot;font-size: 18px; background-color: initial;&quot;&gt;Samples: 2&lt;/span&gt;&lt;div&gt;&lt;span style=&quot;font-size: 18px;&quot;&gt;Blue Eyes?&lt;/span&gt;&lt;/div&gt;" style="rounded=1;whiteSpace=wrap;html=1;hachureGap=4;fontFamily=Architects Daughter;fontSource=https%3A%2F%2Ffonts.googleapis.com%2Fcss%3Ffamily%3DArchitects%2BDaughter;sketch=1;curveFitting=1;jiggle=2;" parent="1" vertex="1">
          <mxGeometry x="1339" y="491" width="120" height="60" as="geometry" />
        </mxCell>
        <mxCell id="2NCjlZ-DJ5AgkBBbE0hC-109" value="&lt;span style=&quot;font-size: 18px;&quot;&gt;Emma&lt;/span&gt;" style="ellipse;whiteSpace=wrap;html=1;hachureGap=4;fontFamily=Architects Daughter;fontSource=https%3A%2F%2Ffonts.googleapis.com%2Fcss%3Ffamily%3DArchitects%2BDaughter;sketch=1;curveFitting=1;jiggle=2;fillColor=#BA55D3;" parent="1" vertex="1">
          <mxGeometry x="1260" y="551" width="120" height="80" as="geometry" />
        </mxCell>
        <mxCell id="2NCjlZ-DJ5AgkBBbE0hC-110" value="&lt;span style=&quot;font-size: 18px;&quot;&gt;Rachel&lt;/span&gt;" style="ellipse;whiteSpace=wrap;html=1;hachureGap=4;fontFamily=Architects Daughter;fontSource=https%3A%2F%2Ffonts.googleapis.com%2Fcss%3Ffamily%3DArchitects%2BDaughter;sketch=1;curveFitting=1;jiggle=2;fillColor=#FF8C00;" parent="1" vertex="1">
          <mxGeometry x="1420" y="551" width="120" height="80" as="geometry" />
        </mxCell>
      </root>
    </mxGraphModel>
  </diagram>
</mxfile>
